<?xml version="1.0" encoding="UTF-8" standalone="no"?>
<!-- Created with Inkscape (http://www.inkscape.org/) -->

<svg
   xmlns:dc="http://purl.org/dc/elements/1.1/"
   xmlns:cc="http://creativecommons.org/ns#"
   xmlns:rdf="http://www.w3.org/1999/02/22-rdf-syntax-ns#"
   xmlns:svg="http://www.w3.org/2000/svg"
   xmlns="http://www.w3.org/2000/svg"
   xmlns:sodipodi="http://sodipodi.sourceforge.net/DTD/sodipodi-0.dtd"
   xmlns:inkscape="http://www.inkscape.org/namespaces/inkscape"
   version="1.1"
   id="svg3713"
   width="200"
   height="200"
   viewBox="0 0 20.48 20.48"
   sodipodi:docname="iconnew.svg"
   inkscape:version="0.92.3 (2405546, 2018-03-11)">
  <metadata
     id="metadata3719">
    <rdf:RDF>
      <cc:Work
         rdf:about="">
        <dc:format>image/svg+xml</dc:format>
        <dc:type
           rdf:resource="http://purl.org/dc/dcmitype/StillImage" />
        <dc:title></dc:title>
      </cc:Work>
    </rdf:RDF>
  </metadata>
  <defs
     id="defs3717" />
  <sodipodi:namedview
     pagecolor="#ffffff"
     bordercolor="#666666"
     borderopacity="1"
     objecttolerance="10"
     gridtolerance="10"
     guidetolerance="10"
     inkscape:pageopacity="0"
     inkscape:pageshadow="2"
     inkscape:window-width="3840"
     inkscape:window-height="2041"
     id="namedview3715"
     showgrid="false"
     inkscape:zoom="1.7416319"
     inkscape:cx="70.49655"
     inkscape:cy="74.510102"
     inkscape:window-x="-14"
     inkscape:window-y="54"
     inkscape:window-maximized="1"
     inkscape:current-layer="svg3713" />
  <path
     style="fill:#ffffff;stroke-width:0.01173639;opacity:0"
     d="M 0.00695348,10.243783 V 0.00965091 H 10.241084 20.475216 V 10.243783 20.477914 H 10.241084 0.00695348 Z M 10.412644,15.616115 c 0.04319,-0.04034 0.131761,-0.13937 0.196825,-0.220057 0.139197,-0.172621 0.233453,-0.281229 0.417711,-0.481311 0.07437,-0.08075 0.20915,-0.233695 0.299521,-0.339869 0.145689,-0.17117 0.255372,-0.295821 0.520753,-0.591815 0.08788,-0.09801 0.154175,-0.185217 0.182545,-0.240107 0.02653,-0.05133 0.01195,-0.08835 -0.06197,-0.157324 -0.08368,-0.07808 -0.754321,-0.471895 -1.134258,-0.666059 -0.109735,-0.05608 -0.272051,-0.144839 -0.360702,-0.197244 l -0.161183,-0.09528 -0.308272,0.165217 c -1.0222428,0.547867 -1.4408338,0.809531 -1.4408338,0.900675 0,0.02473 0.07614,0.126883 0.207071,0.277806 0.205965,0.237417 0.453198,0.528179 0.603907,0.710236 0.426203,0.514852 0.8916058,1.008485 0.9508118,1.008485 0.0053,0 0.04488,-0.03301 0.08807,-0.07335 z M 4.9079665,15.042247 c 0.05613,-0.02031 0.416861,-0.194758 0.801622,-0.387659 0.384761,-0.192902 0.805193,-0.398745 0.934293,-0.457431 0.6484144,-0.29475 0.9995985,-0.463603 1.4951857,-0.7189 0.126535,-0.06518 0.269674,-0.136456 0.318087,-0.158383 0.212486,-0.09624 0.67979,-0.317016 1.015197,-0.479625 0.407454,-0.197538 0.5883758,-0.278082 0.7304118,-0.32517 l 0.09665,-0.03204 0.0845,0.02567 c 0.107781,0.03274 0.347759,0.13578 0.60243,0.258674 0.313011,0.151045 0.631208,0.300597 0.803943,0.377849 0.241324,0.107928 0.628908,0.293713 1.109089,0.531632 0.445122,0.220549 0.765211,0.37052 1.003461,0.470151 0.07423,0.03104 0.388474,0.183696 0.698315,0.339228 0.544288,0.27322 0.854788,0.417128 1.105399,0.512319 0.136875,0.05199 0.210929,0.05879 0.243861,0.0224 0.01995,-0.02204 0.0199,-0.02473 -0.0011,-0.06425 -0.02545,-0.04787 -0.02504,-0.04745 -2.322265,-2.357652 l -1.748722,-1.7586 -0.0075,-0.107622 c -0.0041,-0.05919 -0.0081,-0.300391 -0.0089,-0.535999 -0.0017,-0.5359398 -0.02141,-1.3828538 -0.03622,-1.5592698 -0.0062,-0.07331 -0.01637,-0.139541 -0.0227,-0.147171 -0.02212,-0.02665 -0.09569,-0.210972 -0.275827,-0.6911 -0.09982,-0.2660589 -0.206015,-0.5418381 -0.235981,-0.6128433 -0.02997,-0.071005 -0.06413,-0.1728658 -0.07592,-0.2263571 -0.01179,-0.053491 -0.03001,-0.1089457 -0.04049,-0.1232321 -0.01048,-0.014286 -0.03212,-0.04396 -0.04807,-0.065941 -0.01595,-0.021981 -0.04546,-0.093278 -0.06557,-0.1584368 -0.02011,-0.065159 -0.06492,-0.1795409 -0.09959,-0.2541816 -0.03467,-0.074641 -0.06842,-0.1641207 -0.075,-0.1988442 -0.0071,-0.037427 -0.02848,-0.087304 -0.05252,-0.1224947 -0.04689,-0.068653 -0.0997,-0.1988881 -0.21582,-0.532318 -0.140285,-0.4028063 -0.242575,-0.6135534 -0.301917,-0.6220311 -0.05965,-0.00852 -0.166065,0.1732021 -0.263216,0.4494867 -0.02724,0.07746 -0.06657,0.1672435 -0.08741,0.1995186 -0.02084,0.032275 -0.04456,0.09037 -0.05271,0.1291003 -0.0081,0.03873 -0.04267,0.1311542 -0.0767,0.2053868 -0.03403,0.074233 -0.07022,0.1641283 -0.08041,0.1997678 -0.01019,0.03564 -0.04707,0.125423 -0.08195,0.1995186 -0.07087,0.1505467 -0.278732,0.6948863 -0.383527,1.0043378 -0.03768,0.1112797 -0.09512,0.2655804 -0.127641,0.3428904 -0.05648,0.134277 -0.07403,0.1905169 -0.08911,0.2855779 -0.0037,0.02353 -0.02317,0.06314 -0.04319,0.08802 -0.04559,0.05666 -0.06436,0.100283 -0.0997,0.231777 -0.01543,0.05741 -0.0494,0.149831 -0.0755,0.205387 -0.08987,0.191341 -0.08474,0.117525 -0.09216,1.323966 l -0.0067,1.0821158 -1.4846533,1.504669 c -1.6961974,1.719065 -2.0392204,2.06918 -2.2759224,2.322977 -0.222627,0.238706 -0.31782,0.350892 -0.31782,0.374557 0,0.05858 0.0863,0.06255 0.22993,0.01057 z m 2.0091209,-2.532102 c 0.069024,-0.03492 0.1316997,-0.08514 0.1316997,-0.105537 0,-0.01801 0.1240198,-0.169499 0.2653214,-0.32408 0.070806,-0.07746 0.2130395,-0.235768 0.3160749,-0.351794 0.1030355,-0.116026 0.2322289,-0.258792 0.2870965,-0.317258 0.2075573,-0.22117 0.4017383,-0.439381 0.5221263,-0.586742 l 0.124648,-0.152573 -0.0044,-0.8156788 c -0.0037,-0.687863 -0.0072,-0.826184 -0.02246,-0.882712 -0.03408,-0.126364 -0.07355,-0.163822 -0.262183,-0.248798 -0.07789,-0.03509 -0.183643,-0.07426 -0.235009,-0.08705 -0.05137,-0.01279 -0.1616727,-0.05304 -0.2451254,-0.08944 -0.2102242,-0.09171 -0.5295646,-0.209716 -0.6697981,-0.247516 -0.06455,-0.0174 -0.1358487,-0.04098 -0.1584413,-0.0524 -0.022593,-0.01142 -0.2312068,-0.08277 -0.4635869,-0.158559 -0.232381,-0.07579 -0.475615,-0.160478 -0.54052,-0.188194 -0.06491,-0.02772 -0.152048,-0.05656 -0.19365,-0.06411 -0.04167,-0.0076 -0.136248,-0.04173 -0.21061,-0.07609 -0.07423,-0.03431 -0.192772,-0.07918 -0.263421,-0.09972 -0.07065,-0.02054 -0.173635,-0.06003 -0.228859,-0.08775 -0.05522,-0.02772 -0.124174,-0.05391 -0.153221,-0.05821 -0.02905,-0.0043 -0.11355,-0.03481 -0.187782,-0.0678 -0.147832,-0.065711 -0.223138,-0.091504 -0.267155,-0.091504 -0.01578,0 -0.100766,-0.028668 -0.188851,-0.063707 -0.08809,-0.035039 -0.300116,-0.1060309 -0.471174,-0.1577595 -0.327604,-0.099069 -0.403767,-0.1254956 -0.55981,-0.1942404 -0.05292,-0.023315 -0.134783,-0.051033 -0.181914,-0.061595 -0.04713,-0.010562 -0.153248,-0.047765 -0.235816,-0.082673 -0.154931,-0.065501 -0.211583,-0.07455 -0.234766,-0.037498 -0.01952,0.031207 0.03566,0.1306771 0.181718,0.3275346 0.232767,0.3137263 0.362115,0.4931043 0.482392,0.6689743 0.06401,0.0936 0.136004,0.1939439 0.159983,0.2229909 0.132283,0.160244 0.210487,0.263922 0.461189,0.611413 0.1518,0.210405 0.434169,0.595946 0.627487,0.856757 0.193319,0.260812 0.456328,0.6220819 0.584466,0.8028219 0.281725,0.397377 0.252316,0.357145 0.651991,0.891966 0.178483,0.238835 0.413326,0.560999 0.521874,0.715919 0.205162,0.292809 0.4712206,0.638959 0.5143222,0.669148 0.036376,0.02548 0.070806,0.02158 0.1461637,-0.01654 z m 6.9615216,-0.160747 c 0.03545,-0.01419 0.05491,-0.03322 0.08098,-0.07922 0.01887,-0.0333 0.0563,-0.08696 0.08318,-0.119231 0.131463,-0.157852 0.230811,-0.286234 0.354202,-0.457719 0.290768,-0.404098 0.401948,-0.555982 0.725944,-0.991725 0.184786,-0.248518 0.445313,-0.60237 0.57895,-0.7863378 0.133637,-0.183968 0.351846,-0.477086 0.484908,-0.651371 0.133063,-0.174285 0.358618,-0.480605 0.501237,-0.68071 0.142617,-0.200106 0.431227,-0.593568 0.641356,-0.8743609 0.536606,-0.7170627 0.589301,-0.7977575 0.531571,-0.8140121 -0.109974,-0.030964 -0.243176,-0.012472 -0.417232,0.057925 -0.162944,0.065903 -0.550479,0.1921178 -0.718672,0.2340618 -0.07078,0.017651 -0.178865,0.054284 -0.240187,0.081405 -0.149063,0.065927 -0.168995,0.073096 -0.260364,0.093654 -0.100632,0.022643 -0.334257,0.1073583 -0.543579,0.1971103 -0.210639,0.09032 -0.240408,0.100765 -0.344001,0.120727 -0.05395,0.0104 -0.117122,0.03377 -0.170177,0.06297 -0.05059,0.02784 -0.164267,0.07063 -0.283896,0.1068569 -0.109736,0.03323 -0.331553,0.105585 -0.492929,0.160785 -0.161375,0.0552 -0.472976,0.159873 -0.692447,0.232606 -0.21947,0.07273 -0.52579,0.178274 -0.68071,0.234533 -0.154921,0.05626 -0.334488,0.120735 -0.399038,0.143278 -0.06455,0.02254 -0.180056,0.06997 -0.25668,0.105385 -0.07662,0.03542 -0.157408,0.06733 -0.179518,0.07092 -0.08872,0.0144 -0.09738,0.09192 -0.09741,0.871772 0,0.7285018 0.01395,0.9339158 0.07123,1.0466968 0.01208,0.02378 0.03177,0.05019 0.04376,0.05868 0.01199,0.0085 0.0926,0.09218 0.179137,0.185974 0.08654,0.09379 0.345376,0.373704 0.575203,0.622029 0.468665,0.50639 0.656013,0.714853 0.656013,0.729953 0,0.0056 0.02245,0.02043 0.04988,0.03288 0.06118,0.02777 0.156244,0.02972 0.219301,0.0045 z"
     id="path3771"
     inkscape:connector-curvature="0" />
  <path
     style="fill:#ffffff;stroke-width:0.01173639"
     d="m 10.27204,15.537989 c -0.0085,-0.01023 -0.03813,-0.03421 -0.06587,-0.0533 -0.03383,-0.02327 -0.06005,-0.05484 -0.0796,-0.09584 -0.01783,-0.03738 -0.04549,-0.07215 -0.07119,-0.0895 -0.02311,-0.0156 -0.055468,-0.05131 -0.071898,-0.07934 -0.016431,-0.02804 -0.052528,-0.06724 -0.080216,-0.08713 -0.029493,-0.02118 -0.063746,-0.06123 -0.082708,-0.0967 -0.017802,-0.0333 -0.067233,-0.0985 -0.1098461,-0.144876 -0.1539272,-0.167531 -0.2202983,-0.24506 -0.2454706,-0.286736 -0.0141,-0.02335 -0.046663,-0.05636 -0.072361,-0.07337 -0.026323,-0.01742 -0.057718,-0.05269 -0.0719,-0.08079 -0.013846,-0.02743 -0.05026,-0.07658 -0.08092,-0.109229 -0.03066,-0.03265 -0.063789,-0.07492 -0.073622,-0.09393 -0.00983,-0.01901 -0.04086,-0.0564 -0.068951,-0.08307 -0.02809,-0.02667 -0.095965,-0.100025 -0.1508328,-0.163002 -0.054868,-0.06298 -0.1380493,-0.152294 -0.1848482,-0.198483 -0.046799,-0.04619 -0.085089,-0.0899 -0.085089,-0.09713 0,-0.03217 0.018396,-0.05327 0.068949,-0.07907 0.029856,-0.01524 0.070127,-0.04451 0.089492,-0.06505 0.042478,-0.04506 0.078604,-0.06456 0.1404311,-0.07577 0.064713,-0.01174 0.1105062,-0.03698 0.1610698,-0.08878 0.029884,-0.03062 0.067352,-0.05236 0.1209267,-0.07019 0.042694,-0.01421 0.1008234,-0.04354 0.1291753,-0.06518 0.062381,-0.04762 0.120424,-0.07752 0.202714,-0.104443 0.03697,-0.0121 0.088927,-0.0434 0.1291003,-0.0778 0.044669,-0.03824 0.092391,-0.06597 0.142206,-0.08262 0.041237,-0.01379 0.09405,-0.04212 0.1173639,-0.06296 0.052578,-0.04699 0.077213,-0.06003 0.1787306,-0.09455 0.04433,-0.01508 0.09237,-0.03566 0.106771,-0.04575 0.03552,-0.02488 0.0561,-0.02316 0.116302,0.0097 0.02825,0.01542 0.07083,0.0342 0.09464,0.04175 0.0238,0.0075 0.07476,0.04181 0.113243,0.07614 0.05351,0.04774 0.08473,0.06589 0.132765,0.07717 0.07828,0.01838 0.09316,0.02611 0.16888,0.08779 0.03359,0.02736 0.09784,0.0638 0.142779,0.08097 0.04494,0.01717 0.117942,0.05502 0.162234,0.08411 0.04429,0.02909 0.116896,0.06394 0.161342,0.07744 0.05921,0.01799 0.09232,0.03634 0.123886,0.06867 0.04984,0.05105 0.08773,0.07178 0.17948,0.09815 0.0425,0.01222 0.0792,0.03258 0.103105,0.05722 0.02041,0.02104 0.06994,0.0541 0.110059,0.07346 0.104373,0.05038 0.104384,0.07361 8.2e-5,0.16631 -0.161285,0.143342 -0.345188,0.335378 -0.398125,0.41573 -0.0299,0.04539 -0.07235,0.09672 -0.09433,0.11407 -0.02198,0.01735 -0.05533,0.05531 -0.07412,0.08436 -0.01879,0.02905 -0.05602,0.07394 -0.08272,0.09976 -0.02671,0.02582 -0.05848,0.06615 -0.0706,0.08962 -0.01212,0.02347 -0.04301,0.05929 -0.06864,0.07959 -0.02563,0.0203 -0.0623,0.06241 -0.08147,0.09358 -0.01918,0.03116 -0.05253,0.06759 -0.07413,0.08094 -0.0216,0.01336 -0.05426,0.04996 -0.07258,0.08135 -0.01832,0.03139 -0.05185,0.06978 -0.07452,0.08531 -0.02267,0.01553 -0.0548,0.047 -0.07142,0.06994 -0.01661,0.02294 -0.05966,0.07126 -0.09566,0.107385 -0.125448,0.125896 -0.220764,0.239883 -0.25176,0.301077 -0.0328,0.06476 -0.06109,0.07823 -0.09032,0.04302 z m 0.08309,-0.08997 c 0.01535,-0.02743 0.05725,-0.07969 0.09312,-0.116135 0.175211,-0.178027 0.235384,-0.243162 0.235384,-0.254791 0,-0.007 0.02865,-0.03386 0.06366,-0.05973 0.04007,-0.02961 0.07554,-0.06885 0.09571,-0.105911 0.01763,-0.03238 0.04898,-0.06887 0.06966,-0.08108 0.02076,-0.01225 0.05435,-0.05144 0.07495,-0.08745 0.02054,-0.03589 0.05448,-0.07586 0.07544,-0.08881 0.02096,-0.01295 0.0506,-0.04577 0.06586,-0.07293 0.01527,-0.02716 0.05203,-0.07714 0.08171,-0.111055 0.135989,-0.155443 0.220785,-0.257348 0.249891,-0.300309 0.03399,-0.05016 0.354236,-0.362573 0.41726,-0.407042 0.07288,-0.05143 0.05989,-0.10788 -0.0287,-0.12468 -0.02064,-0.0039 -0.05989,-0.02579 -0.08721,-0.04862 -0.05944,-0.04966 -0.11558,-0.07946 -0.184792,-0.0981 -0.03215,-0.0087 -0.07242,-0.03364 -0.108242,-0.06714 -0.04775,-0.04466 -0.07365,-0.05803 -0.15888,-0.08204 -0.07075,-0.01993 -0.123669,-0.04411 -0.173365,-0.07921 -0.03934,-0.02779 -0.10541,-0.06556 -0.14682,-0.08392 -0.04141,-0.01836 -0.101945,-0.05614 -0.134522,-0.08394 -0.03258,-0.02781 -0.08056,-0.05604 -0.106623,-0.06274 -0.104581,-0.02688 -0.131181,-0.04008 -0.187852,-0.09325 -0.08983,-0.08428 -0.124744,-0.09863 -0.240973,-0.09908 -0.122237,-4.73e-4 -0.189453,0.02225 -0.287541,0.09723 -0.039079,0.02987 -0.094825,0.06019 -0.1252581,0.06813 -0.073286,0.01913 -0.094284,0.03137 -0.1674889,0.09766 -0.044141,0.03998 -0.085083,0.06398 -0.1406544,0.08247 -0.043114,0.01435 -0.1014633,0.0437 -0.129665,0.06523 -0.066339,0.05064 -0.1023649,0.06856 -0.1863668,0.09272 -0.048999,0.01409 -0.084651,0.03466 -0.1242202,0.07167 -0.060667,0.05675 -0.1080653,0.08037 -0.1875157,0.09347 -0.037954,0.0063 -0.066246,0.02197 -0.1056275,0.05865 -0.029584,0.02756 -0.074914,0.05996 -0.1007338,0.07201 -0.038453,0.01794 -0.047599,0.02863 -0.050557,0.05913 -0.0032,0.03297 0.00362,0.0427 0.059503,0.08489 0.034713,0.02621 0.079206,0.06754 0.098874,0.09185 0.019668,0.02431 0.09984,0.112024 0.1781592,0.194924 0.078319,0.0829 0.1423991,0.155835 0.1423991,0.162078 0,0.0062 0.025824,0.03876 0.057386,0.07226 0.031563,0.0335 0.069417,0.08664 0.08412,0.118093 0.01764,0.03773 0.045147,0.07041 0.080863,0.09607 0.029771,0.02139 0.066184,0.06034 0.080916,0.08655 0.014733,0.02621 0.044004,0.06079 0.065048,0.07684 0.021044,0.01605 0.057603,0.05727 0.081243,0.09159 0.023639,0.03432 0.059048,0.07429 0.078686,0.08881 0.019638,0.01452 0.065654,0.07187 0.1022563,0.127448 0.036603,0.05558 0.080861,0.109264 0.098351,0.119302 0.01749,0.01004 0.048201,0.0433 0.068247,0.07392 0.020046,0.03062 0.055259,0.07002 0.078252,0.08756 0.02299,0.01754 0.05723,0.06244 0.07608,0.09978 0.03737,0.07404 0.101262,0.127514 0.152336,0.127514 0.02347,0 0.03663,-0.01127 0.05823,-0.04988 z"
     id="path3773"
     inkscape:connector-curvature="0" />
  <path
     style="fill:#ffffff;stroke-width:0.01173639"
     d=""
     id="path3775"
     inkscape:connector-curvature="0" />
  <path
     style="fill:#009688;stroke-width:0.01562124;fill-opacity:1"
     d="M 6.7459443,12.487081 C 6.6776596,12.414679 6.4603393,12.126859 6.1662825,11.719376 6.0298798,11.530359 5.8060205,11.224573 5.6688175,11.039852 5.5316142,10.855131 5.2929099,10.528257 5.1383635,10.313464 4.9838169,10.098672 4.6280264,9.610118 4.3477177,9.2277881 4.0674091,8.8454581 3.792683,8.4693767 3.7372153,8.3920516 3.6817476,8.3147264 3.5831991,8.1846796 3.5182185,8.1030586 3.4532379,8.0214376 3.3156614,7.8351543 3.2124929,7.6890957 3.1093244,7.543037 2.9451818,7.3150955 2.8477316,7.1825588 2.6482639,6.9112737 2.5978409,6.8299639 2.5975689,6.7791583 c -2.561e-4,-0.047841 0.035984,-0.045641 0.1838654,0.011159 0.1659637,0.063745 0.3794879,0.1368501 1.0968883,0.3755442 0.3393715,0.112916 0.6732756,0.2263189 0.7420091,0.2520064 0.068733,0.025688 0.1987803,0.073775 0.288993,0.1068618 0.2520646,0.092447 0.4136116,0.1539015 0.6014178,0.2287857 0.094508,0.037683 0.2175258,0.081999 0.2733718,0.098479 0.055846,0.01648 0.3475726,0.1150626 0.6482815,0.2190722 0.3007089,0.1040096 0.6448227,0.2212688 0.7646973,0.2605763 0.1198747,0.039307 0.3307614,0.1172682 0.4686373,0.1732464 0.1378759,0.055978 0.3064988,0.1191896 0.3747176,0.1404698 0.1564095,0.048791 0.3645223,0.1456336 0.4127149,0.1920527 0.088524,0.085266 0.087686,0.07631 0.092972,0.994299 l 0.00487,0.8460512 -0.1554253,0.184951 c -0.085484,0.101722 -0.312622,0.357593 -0.5047512,0.568602 -0.5082371,0.558178 -0.7018467,0.776041 -0.7835169,0.881668 -0.1020393,0.131973 -0.1291809,0.157385 -0.207329,0.194119 -0.090074,0.04234 -0.095947,0.04158 -0.15404,-0.02002 z"
     id="path3803"
     inkscape:connector-curvature="0" />
  <path
     style="fill:#009688;stroke-width:0.01562124;fill-opacity:1"
     d="m 4.6962151,15.046541 c -0.023125,-0.06026 0.1530983,-0.243991 3.1238574,-3.256869 l 0.9472759,-0.960707 0.0011,-0.8513573 c 6.045e-4,-0.4682467 0.00679,-0.9746138 0.013745,-1.1252603 0.012324,-0.2669278 0.014057,-0.2771119 0.068057,-0.3999292 0.030476,-0.069315 0.070575,-0.1780338 0.089109,-0.2415983 0.018534,-0.063565 0.056889,-0.1542345 0.085233,-0.2014888 0.028344,-0.047254 0.05657,-0.1138006 0.062724,-0.1478806 0.00615,-0.03408 0.056276,-0.179467 0.1113837,-0.3230823 C 9.253806,7.394753 9.2988939,7.2732394 9.2988939,7.268338 c 0,-0.021214 0.276896,-0.7528341 0.3521582,-0.9304798 0.1301237,-0.307138 0.2261175,-0.546794 0.2578711,-0.6437948 0.016067,-0.049082 0.044225,-0.1186658 0.062572,-0.1546299 0.018347,-0.035964 0.058002,-0.1293674 0.088121,-0.207563 0.0815,-0.21158 0.157252,-0.3593363 0.210069,-0.4097247 l 0.04704,-0.044874 0.0324,0.039053 c 0.05505,0.066355 0.160078,0.3062731 0.276951,0.6326603 0.06153,0.1718337 0.14308,0.3743584 0.18122,0.4500551 0.03814,0.075697 0.06948,0.1459921 0.06963,0.1562124 1.58e-4,0.01022 0.0253,0.078334 0.05588,0.1513628 0.03058,0.073029 0.08011,0.1995614 0.110082,0.2811823 0.02997,0.081621 0.07458,0.1800349 0.09913,0.2186974 0.02456,0.038663 0.05548,0.112473 0.06873,0.1640231 0.01324,0.05155 0.05997,0.1850856 0.103831,0.2967458 0.04386,0.11166 0.150403,0.3893276 0.236754,0.6170391 0.08635,0.2277113 0.177761,0.4597129 0.203132,0.5155588 0.03002,0.066073 0.05093,0.1451874 0.05987,0.226508 0.0076,0.068734 0.02147,0.5748618 0.03091,1.1247295 0.0094,0.5498676 0.02052,1.0220556 0.02463,1.0493066 0.0062,0.04108 0.34657,0.39068 1.992391,2.046382 1.091706,1.09826 2.010189,2.027316 2.041074,2.064567 0.07046,0.08498 0.05743,0.121338 -0.04182,0.116765 -0.119969,-0.0055 -0.593714,-0.214686 -1.400368,-0.618261 -0.215059,-0.107596 -0.52083,-0.253534 -0.679489,-0.324308 -0.158659,-0.07077 -0.583713,-0.272571 -0.944564,-0.44844 -0.36085,-0.175869 -0.835346,-0.402642 -1.054434,-0.50394 -0.219087,-0.101299 -0.503785,-0.234768 -0.63266,-0.296598 -0.328986,-0.157839 -0.622232,-0.286527 -0.74582,-0.327298 -0.118228,-0.039 -0.115033,-0.0395 -0.349095,0.05473 -0.1842511,0.07418 -1.2426649,0.577836 -2.1152501,1.006562 -0.4166966,0.204734 -0.8841623,0.429796 -1.0388126,0.500137 -0.1546503,0.07034 -0.6519936,0.310308 -1.1052073,0.53326 -0.4532137,0.222953 -0.863786,0.419048 -0.9123829,0.435768 -0.106297,0.03657 -0.1748499,0.03907 -0.1872278,0.0068 z"
     id="path3805"
     inkscape:connector-curvature="0" />
  <path
     style="fill:#009688;stroke-width:0.01562124;fill-opacity:1"
     d="m 13.572108,12.247501 c -0.243474,-0.26924 -0.64492,-0.706444 -1.005473,-1.09503 -0.218403,-0.235386 -0.405885,-0.451031 -0.418617,-0.481502 -0.04187,-0.100215 -0.05515,-0.390177 -0.04967,-1.0842404 0.0058,-0.7301538 0.0083,-0.7526574 0.08629,-0.7818054 0.02378,-0.00888 0.134623,-0.053878 0.246315,-0.099986 0.285036,-0.1176684 0.831822,-0.3097117 1.812064,-0.636436 0.463951,-0.1546394 0.886889,-0.3008002 0.939863,-0.3248016 0.05297,-0.024001 0.131435,-0.051171 0.17436,-0.060377 0.04292,-0.00921 0.210266,-0.070158 0.371871,-0.1354497 0.161604,-0.065292 0.365848,-0.139523 0.453875,-0.1649585 0.08803,-0.025435 0.207732,-0.066492 0.266012,-0.091238 0.05828,-0.024745 0.238706,-0.084616 0.400948,-0.1330453 0.162242,-0.04843 0.387336,-0.1220365 0.500209,-0.1635708 0.244661,-0.090028 0.364069,-0.1170267 0.456369,-0.1031856 0.03764,0.00564 0.06843,0.013695 0.06843,0.017891 0,0.041078 -0.08419,0.162605 -0.523628,0.7558974 -0.181367,0.244863 -0.472909,0.6420331 -0.647872,0.8826002 -0.174962,0.2405671 -0.42105,0.5744712 -0.546861,0.742009 -0.290032,0.386226 -1.249273,1.6874257 -1.606473,2.1791627 -0.149785,0.206201 -0.33346,0.452235 -0.408168,0.546744 -0.07471,0.09451 -0.157854,0.204378 -0.18477,0.244155 -0.05805,0.08579 -0.07062,0.0917 -0.194994,0.0917 h -0.09555 z"
     id="path3807"
     inkscape:connector-curvature="0" />
  <path
     style="fill:#009688;stroke-width:0.01562124;fill-opacity:1"
     d="M 10.222179,15.604474 C 10.101239,15.498988 9.7293362,15.088317 9.3775444,14.671791 9.210647,14.474182 8.9926484,14.217604 8.8931031,14.101616 8.537152,13.68687 8.5449103,13.700584 8.6231783,13.624479 8.7574759,13.493893 9.1759843,13.24751 10.214327,12.687741 l 0.09532,-0.05139 0.107759,0.06283 c 0.05927,0.03455 0.251864,0.140098 0.427994,0.234542 0.396394,0.212554 0.788188,0.438302 0.985724,0.567966 0.146413,0.09611 0.20149,0.151358 0.20149,0.202127 0,0.04209 -0.08878,0.157577 -0.335228,0.436043 -0.129658,0.146505 -0.302343,0.343604 -0.383746,0.437999 -0.0814,0.09439 -0.22347,0.254899 -0.315706,0.356677 -0.09223,0.101777 -0.251762,0.285221 -0.354504,0.407653 -0.177667,0.211715 -0.299742,0.337991 -0.325292,0.336488 -0.0064,-3.78e-4 -0.0496,-0.03377 -0.09596,-0.0742 z"
     id="path3809"
     inkscape:connector-curvature="0" />
</svg>
